# Blender 3.2.2
# www.blender.org
mtllib circle.mtl
o Cylinder
v 0.000000 -0.000500 -1.000000
v 0.000000 0.000500 -1.000000
v 0.500000 -0.000500 -0.866025
v 0.500000 0.000500 -0.866025
v 0.866025 -0.000500 -0.500000
v 0.866025 0.000500 -0.500000
v 1.000000 -0.000500 0.000000
v 1.000000 0.000500 0.000000
v 0.866025 -0.000500 0.500000
v 0.866025 0.000500 0.500000
v 0.500000 -0.000500 0.866025
v 0.500000 0.000500 0.866025
v -0.000000 -0.000500 1.000000
v -0.000000 0.000500 1.000000
v -0.500000 -0.000500 0.866025
v -0.500000 0.000500 0.866025
v -0.866025 -0.000500 0.500000
v -0.866025 0.000500 0.500000
v -1.000000 -0.000500 -0.000000
v -1.000000 0.000500 -0.000000
v -0.866025 -0.000500 -0.500000
v -0.866025 0.000500 -0.500000
v -0.500000 -0.000500 -0.866025
v -0.500000 0.000500 -0.866025
vn 0.2588 -0.0000 -0.9659
vn 0.7071 -0.0000 -0.7071
vn 0.9659 -0.0000 -0.2588
vn 0.9659 -0.0000 0.2588
vn 0.7071 -0.0000 0.7071
vn 0.2588 -0.0000 0.9659
vn -0.2588 -0.0000 0.9659
vn -0.7071 -0.0000 0.7071
vn -0.9659 -0.0000 0.2588
vn -0.9659 -0.0000 -0.2588
vn -0.0000 1.0000 -0.0000
vn -0.7071 -0.0000 -0.7071
vn -0.2588 -0.0000 -0.9659
vn -0.0000 -1.0000 -0.0000
vt 1.000000 0.500000
vt 0.000000 0.500000
vt 0.750000 0.490000
vt 1.000000 1.000000
vt 0.250000 0.490000
vt 0.000000 1.000000
vt 0.916667 0.500000
vt 0.870000 0.457846
vt 0.916667 1.000000
vt 0.370000 0.457846
vt 0.833333 0.500000
vt 0.957846 0.370000
vt 0.833333 1.000000
vt 0.457846 0.370000
vt 0.750000 0.500000
vt 0.990000 0.250000
vt 0.750000 1.000000
vt 0.490000 0.250000
vt 0.666667 0.500000
vt 0.957846 0.130000
vt 0.666667 1.000000
vt 0.457846 0.130000
vt 0.583333 0.500000
vt 0.870000 0.042154
vt 0.583333 1.000000
vt 0.370000 0.042154
vt 0.500000 0.500000
vt 0.750000 0.010000
vt 0.500000 1.000000
vt 0.250000 0.010000
vt 0.416667 0.500000
vt 0.630000 0.042154
vt 0.416667 1.000000
vt 0.130000 0.042154
vt 0.333333 0.500000
vt 0.542154 0.130000
vt 0.333333 1.000000
vt 0.042154 0.130000
vt 0.250000 0.500000
vt 0.510000 0.250000
vt 0.250000 1.000000
vt 0.010000 0.250000
vt 0.166667 0.500000
vt 0.542154 0.370000
vt 0.042154 0.370000
vt 0.166667 1.000000
vt 0.083333 0.500000
vt 0.630000 0.457846
vt 0.130000 0.457846
vt 0.083333 1.000000
s 0
f 2/4/1 3/7/1 1/1/1
f 4/9/2 5/11/2 3/7/2
f 6/13/3 7/15/3 5/11/3
f 8/17/4 9/19/4 7/15/4
f 10/21/5 11/23/5 9/19/5
f 12/25/6 13/27/6 11/23/6
f 14/29/7 15/31/7 13/27/7
f 16/33/8 17/35/8 15/31/8
f 18/37/9 19/39/9 17/35/9
f 20/41/10 21/43/10 19/39/10
f 22/45/11 14/30/11 6/14/11
f 22/46/12 23/47/12 21/43/12
f 24/50/13 1/2/13 23/47/13
f 7/16/14 15/32/14 23/48/14
f 2/4/1 4/9/1 3/7/1
f 4/9/2 6/13/2 5/11/2
f 6/13/3 8/17/3 7/15/3
f 8/17/4 10/21/4 9/19/4
f 10/21/5 12/25/5 11/23/5
f 12/25/6 14/29/6 13/27/6
f 14/29/7 16/33/7 15/31/7
f 16/33/8 18/37/8 17/35/8
f 18/37/9 20/41/9 19/39/9
f 20/41/10 22/46/10 21/43/10
f 6/14/11 4/10/11 2/5/11
f 2/5/11 24/49/11 22/45/11
f 22/45/11 20/42/11 18/38/11
f 18/38/11 16/34/11 14/30/11
f 14/30/11 12/26/11 10/22/11
f 10/22/11 8/18/11 6/14/11
f 6/14/11 2/5/11 22/45/11
f 22/45/11 18/38/11 14/30/11
f 14/30/11 10/22/11 6/14/11
f 22/46/12 24/50/12 23/47/12
f 24/50/13 2/6/13 1/2/13
f 23/48/14 1/3/14 3/8/14
f 3/8/14 5/12/14 7/16/14
f 7/16/14 9/20/14 11/24/14
f 11/24/14 13/28/14 15/32/14
f 15/32/14 17/36/14 19/40/14
f 19/40/14 21/44/14 23/48/14
f 23/48/14 3/8/14 7/16/14
f 7/16/14 11/24/14 15/32/14
f 15/32/14 19/40/14 23/48/14
